<mxfile host="app.diagrams.net" modified="2022-04-26T13:02:13.374Z" agent="5.0 (Windows NT 10.0; Win64; x64) AppleWebKit/537.36 (KHTML, like Gecko) Chrome/100.0.4896.127 Safari/537.36" etag="PHWdFPyOGuAhaBgFkh7l" version="17.4.6" type="github">
  <diagram id="z6s-1fDoAcZvVHcfbINF" name="Page-1">
    <mxGraphModel dx="2307" dy="2367" grid="1" gridSize="10" guides="1" tooltips="1" connect="1" arrows="1" fold="1" page="1" pageScale="1" pageWidth="827" pageHeight="1169" math="0" shadow="0">
      <root>
        <mxCell id="0" />
        <mxCell id="1" parent="0" />
        <UserObject label="" lucidchartObjectId="r5J2yvrYjTo5" id="8C0IB4UqVyfgRzPnCOyS-1">
          <mxCell style="html=1;overflow=block;blockSpacing=1;whiteSpace=wrap;container=1;pointerEvents=0;collapsible=0;recursiveResize=0;fontSize=40;fontColor=#383a3d;fontStyle=1;spacing=0;strokeColor=#383a3d;strokeOpacity=100;fillOpacity=100;rounded=1;absoluteArcSize=1;arcSize=9;fillColor=none;strokeWidth=5.3;" vertex="1" parent="1">
            <mxGeometry x="615" y="-585" width="1455" height="1185" as="geometry" />
          </mxCell>
        </UserObject>
        <UserObject label="" lucidchartObjectId="r5J2nj3KkTNM" id="8C0IB4UqVyfgRzPnCOyS-64">
          <mxCell style="html=1;jettySize=18;whiteSpace=wrap;fontSize=13;strokeColor=#635dff;strokeOpacity=100;dashed=1;fixDash=1;dashPattern=6 5;strokeWidth=3.8;rounded=0;startArrow=none;endArrow=block;endFill=1;entryX=0.5;entryY=-0.029;entryPerimeter=0;startFill=0;sketch=0;" edge="1" parent="8C0IB4UqVyfgRzPnCOyS-1">
            <mxGeometry width="100" height="100" relative="1" as="geometry">
              <Array as="points" />
              <mxPoint x="228" y="884.9999999999999" as="sourcePoint" />
              <mxPoint x="625.5" y="332.61" as="targetPoint" />
            </mxGeometry>
          </mxCell>
        </UserObject>
        <mxCell id="8C0IB4UqVyfgRzPnCOyS-65" value="&amp;lt;&amp;lt;Include&amp;gt;&amp;gt;" style="text;html=1;resizable=0;labelBackgroundColor=default;align=center;verticalAlign=middle;fontStyle=1;fontColor=#4d0066;fontSize=16.8;" vertex="1" parent="8C0IB4UqVyfgRzPnCOyS-64">
          <mxGeometry x="0.6837153140072458" relative="1" as="geometry">
            <mxPoint x="-277" y="395" as="offset" />
          </mxGeometry>
        </mxCell>
        <UserObject label="" lucidchartObjectId="r5J27-VQ5QRP" id="8C0IB4UqVyfgRzPnCOyS-66">
          <mxCell style="html=1;jettySize=18;whiteSpace=wrap;fontSize=13;strokeColor=#635dff;strokeOpacity=100;dashed=1;fixDash=1;dashPattern=6 5;strokeWidth=3.8;rounded=0;startArrow=none;endArrow=block;endFill=1;entryX=0.5;entryY=-0.029;entryPerimeter=0;startFill=0;sketch=0;" edge="1" parent="8C0IB4UqVyfgRzPnCOyS-1">
            <mxGeometry width="100" height="100" relative="1" as="geometry">
              <Array as="points" />
              <mxPoint x="479" y="933.9999999999999" as="sourcePoint" />
              <mxPoint x="625.5" y="332.61" as="targetPoint" />
            </mxGeometry>
          </mxCell>
        </UserObject>
        <mxCell id="8C0IB4UqVyfgRzPnCOyS-67" value="&amp;lt;&amp;lt;Include&amp;gt;&amp;gt;" style="text;html=1;resizable=0;labelBackgroundColor=default;align=center;verticalAlign=middle;fontStyle=1;fontColor=#4d0066;fontSize=16.8;" vertex="1" parent="8C0IB4UqVyfgRzPnCOyS-66">
          <mxGeometry x="0.7835898043603065" relative="1" as="geometry">
            <mxPoint x="-103" y="451" as="offset" />
          </mxGeometry>
        </mxCell>
        <mxCell id="8C0IB4UqVyfgRzPnCOyS-73" value="&lt;span style=&quot;color: rgb(56 , 58 , 61) ; font-size: 40px ; font-weight: 700&quot;&gt;KNAPP&lt;/span&gt;" style="text;html=1;align=center;verticalAlign=middle;resizable=0;points=[];autosize=1;strokeColor=none;fillColor=none;" vertex="1" parent="8C0IB4UqVyfgRzPnCOyS-1">
          <mxGeometry x="35" y="40" width="160" height="30" as="geometry" />
        </mxCell>
        <UserObject label="KNAPP Use-Case Diagram :: Faculty View" lucidchartObjectId="oWx1OODfJP25" id="8C0IB4UqVyfgRzPnCOyS-2">
          <mxCell style="html=1;overflow=block;blockSpacing=1;whiteSpace=wrap;fontSize=35.2;fontColor=#8b412b;fontStyle=1;spacing=3.8;strokeColor=none;fillOpacity=0;fillColor=#ffffff;strokeWidth=0;" vertex="1" parent="1">
            <mxGeometry x="1005" y="-780" width="742" height="133" as="geometry" />
          </mxCell>
        </UserObject>
        <UserObject label="Primary Actors" lucidchartObjectId="r5J2eUWk0_q~" id="8C0IB4UqVyfgRzPnCOyS-3">
          <mxCell style="html=1;overflow=block;blockSpacing=1;whiteSpace=wrap;fontSize=38.5;fontColor=#8b412b;fontStyle=1;spacing=0;fillColor=#ffffff;strokeWidth=1.5;strokeColor=none;" vertex="1" parent="1">
            <mxGeometry x="240" y="-660" width="337" height="45" as="geometry" />
          </mxCell>
        </UserObject>
        <UserObject label="Login" lucidchartObjectId="r5J2KJixsVEk" id="8C0IB4UqVyfgRzPnCOyS-4">
          <mxCell style="html=1;overflow=block;blockSpacing=1;whiteSpace=wrap;ellipse;fontSize=30.2;fontColor=#383a3d;fontStyle=1;spacing=3.8;strokeColor=#383a3d;strokeOpacity=100;fillOpacity=100;rounded=1;absoluteArcSize=1;arcSize=9;fillColor=#FFFFFF;strokeWidth=5.3;" vertex="1" parent="1">
            <mxGeometry x="990" y="-480" width="504" height="225" as="geometry" />
          </mxCell>
        </UserObject>
        <UserObject label="Admin" lucidchartObjectId="r5J2ja1e3.I." id="8C0IB4UqVyfgRzPnCOyS-5">
          <mxCell style="html=1;overflow=block;blockSpacing=1;shape=umlActor;labelPosition=center;verticalLabelPosition=bottom;verticalAlign=top;whiteSpace=nowrap;fontSize=23.3;fontColor=#383a3d;fontStyle=1;spacing=0;strokeColor=#383a3d;strokeOpacity=100;fillOpacity=100;rounded=1;absoluteArcSize=1;arcSize=9;fillColor=#c4c4c4;strokeWidth=5.3;" vertex="1" parent="1">
            <mxGeometry x="2248" y="-540" width="60" height="135" as="geometry" />
          </mxCell>
        </UserObject>
        <UserObject label="HODs/ HOIs and Faculties" lucidchartObjectId="r5J2-bV2MJs9" id="8C0IB4UqVyfgRzPnCOyS-6">
          <mxCell style="html=1;overflow=block;blockSpacing=1;shape=umlActor;labelPosition=center;verticalLabelPosition=bottom;verticalAlign=top;whiteSpace=nowrap;fontSize=38.3;fontColor=#383a3d;fontStyle=1;spacing=0;strokeColor=#383a3d;strokeOpacity=100;fillOpacity=100;rounded=1;absoluteArcSize=1;arcSize=9;fillColor=#c4c4c4;strokeWidth=5.3;" vertex="1" parent="1">
            <mxGeometry x="378" y="-426" width="60" height="135" as="geometry" />
          </mxCell>
        </UserObject>
        <UserObject label="Account Department Users" lucidchartObjectId="r5J2bWHTsA4a" id="8C0IB4UqVyfgRzPnCOyS-7">
          <mxCell style="html=1;overflow=block;blockSpacing=1;shape=umlActor;labelPosition=center;verticalLabelPosition=bottom;verticalAlign=top;whiteSpace=nowrap;fontSize=23.3;fontColor=#383a3d;fontStyle=1;spacing=0;strokeColor=#383a3d;strokeOpacity=100;fillOpacity=100;rounded=1;absoluteArcSize=1;arcSize=9;fillColor=#c4c4c4;strokeWidth=5.3;" vertex="1" parent="1">
            <mxGeometry x="2248" y="-322" width="60" height="135" as="geometry" />
          </mxCell>
        </UserObject>
        <UserObject label="Users Management" lucidchartObjectId="r5J24hX5EE5z" id="8C0IB4UqVyfgRzPnCOyS-8">
          <mxCell style="html=1;overflow=block;blockSpacing=1;shape=umlActor;labelPosition=center;verticalLabelPosition=bottom;verticalAlign=top;whiteSpace=nowrap;fontSize=23.3;fontColor=#383a3d;fontStyle=1;spacing=0;strokeColor=#383a3d;strokeOpacity=100;fillOpacity=100;rounded=1;absoluteArcSize=1;arcSize=9;fillColor=#c4c4c4;strokeWidth=5.3;" vertex="1" parent="1">
            <mxGeometry x="2248" y="-45" width="60" height="135" as="geometry" />
          </mxCell>
        </UserObject>
        <UserObject label="Bus Management Users" lucidchartObjectId="r5J2X4mEU7GD" id="8C0IB4UqVyfgRzPnCOyS-9">
          <mxCell style="html=1;overflow=block;blockSpacing=1;shape=umlActor;labelPosition=center;verticalLabelPosition=bottom;verticalAlign=top;whiteSpace=nowrap;fontSize=23.3;fontColor=#383a3d;fontStyle=1;spacing=0;strokeColor=#383a3d;strokeOpacity=100;fillOpacity=100;rounded=1;absoluteArcSize=1;arcSize=9;fillColor=#c4c4c4;strokeWidth=5.3;" vertex="1" parent="1">
            <mxGeometry x="2265" y="390" width="60" height="135" as="geometry" />
          </mxCell>
        </UserObject>
        <UserObject label="Notices" lucidchartObjectId="r5J2MqI6M7ps" id="8C0IB4UqVyfgRzPnCOyS-10">
          <mxCell style="html=1;overflow=block;blockSpacing=1;whiteSpace=wrap;ellipse;fontSize=20.2;fontColor=#383a3d;fontStyle=1;spacing=3.8;strokeColor=#383a3d;strokeOpacity=100;fillOpacity=100;rounded=1;absoluteArcSize=1;arcSize=9;fillColor=#FFFFFF;strokeWidth=5.3;" vertex="1" parent="1">
            <mxGeometry x="690" y="-1" width="114" height="90" as="geometry" />
          </mxCell>
        </UserObject>
        <UserObject label="" lucidchartObjectId="r5J2xcEQHi1h" id="8C0IB4UqVyfgRzPnCOyS-11">
          <mxCell style="html=1;jettySize=18;whiteSpace=wrap;fontSize=13;strokeColor=#383a3d;strokeOpacity=100;dashed=1;fixDash=1;dashPattern=6 5;strokeWidth=2.3;rounded=0;startArrow=none;endArrow=block;endFill=1;exitX=0.5;exitY=-0.029;exitPerimeter=0;entryX=0.5;entryY=1.012;entryPerimeter=0;exitDx=0;exitDy=0;entryDx=0;entryDy=0;" edge="1" parent="1" source="8C0IB4UqVyfgRzPnCOyS-10" target="8C0IB4UqVyfgRzPnCOyS-4">
            <mxGeometry width="100" height="100" relative="1" as="geometry">
              <Array as="points" />
            </mxGeometry>
          </mxCell>
        </UserObject>
        <mxCell id="8C0IB4UqVyfgRzPnCOyS-12" value="&amp;lt;&amp;lt;Include&amp;gt;&amp;gt;" style="text;html=1;resizable=0;labelBackgroundColor=default;align=center;verticalAlign=middle;fontStyle=1;fontColor=#383a3d;fontSize=16.8;" vertex="1" parent="8C0IB4UqVyfgRzPnCOyS-11">
          <mxGeometry x="0.3216789903860193" relative="1" as="geometry">
            <mxPoint x="-214" y="108" as="offset" />
          </mxGeometry>
        </mxCell>
        <UserObject label="" lucidchartObjectId="r5J2KLj4t58I" id="8C0IB4UqVyfgRzPnCOyS-13">
          <mxCell style="html=1;jettySize=18;whiteSpace=wrap;fontSize=13;strokeColor=#E45E2D;strokeWidth=3;rounded=0;startArrow=none;endArrow=none;exitX=0.456;exitY=0.436;exitPerimeter=0;entryX=1.005;entryY=0.5;entryPerimeter=0;" edge="1" parent="1" source="8C0IB4UqVyfgRzPnCOyS-5" target="8C0IB4UqVyfgRzPnCOyS-4">
            <mxGeometry width="100" height="100" relative="1" as="geometry">
              <Array as="points" />
            </mxGeometry>
          </mxCell>
        </UserObject>
        <UserObject label="" lucidchartObjectId="r5J2VfZ~2v~." id="8C0IB4UqVyfgRzPnCOyS-14">
          <mxCell style="html=1;jettySize=18;whiteSpace=wrap;fontSize=13;strokeColor=#E45E2D;strokeWidth=3;rounded=0;startArrow=none;endArrow=none;exitX=0.456;exitY=0.436;exitPerimeter=0;entryX=-0.005;entryY=0.5;entryPerimeter=0;" edge="1" parent="1" source="8C0IB4UqVyfgRzPnCOyS-6" target="8C0IB4UqVyfgRzPnCOyS-4">
            <mxGeometry width="100" height="100" relative="1" as="geometry">
              <Array as="points" />
            </mxGeometry>
          </mxCell>
        </UserObject>
        <UserObject label="" lucidchartObjectId="r5J2~WBqriYs" id="8C0IB4UqVyfgRzPnCOyS-15">
          <mxCell style="html=1;jettySize=18;whiteSpace=wrap;fontSize=13;strokeColor=#E45E2D;strokeWidth=3;rounded=0;startArrow=none;endArrow=none;exitX=0.458;exitY=0.5;exitPerimeter=0;entryX=1.005;entryY=0.5;entryPerimeter=0;" edge="1" parent="1" source="8C0IB4UqVyfgRzPnCOyS-7" target="8C0IB4UqVyfgRzPnCOyS-4">
            <mxGeometry width="100" height="100" relative="1" as="geometry">
              <Array as="points" />
            </mxGeometry>
          </mxCell>
        </UserObject>
        <UserObject label="" lucidchartObjectId="r5J2y6wh2nRl" id="8C0IB4UqVyfgRzPnCOyS-16">
          <mxCell style="html=1;jettySize=18;whiteSpace=wrap;fontSize=13;strokeColor=#e45e2d;strokeOpacity=100;strokeWidth=3;rounded=0;startArrow=none;endArrow=none;exitX=0.458;exitY=0.5;exitPerimeter=0;entryX=1.005;entryY=0.5;entryPerimeter=0;" edge="1" parent="1" source="8C0IB4UqVyfgRzPnCOyS-8" target="8C0IB4UqVyfgRzPnCOyS-4">
            <mxGeometry width="100" height="100" relative="1" as="geometry">
              <Array as="points" />
            </mxGeometry>
          </mxCell>
        </UserObject>
        <UserObject label="Login Account" lucidchartObjectId="r5J2quRCjULI" id="8C0IB4UqVyfgRzPnCOyS-17">
          <mxCell style="html=1;overflow=block;blockSpacing=1;whiteSpace=wrap;ellipse;fontSize=13;spacing=0;strokeColor=#383a3d;strokeOpacity=100;fillOpacity=100;rounded=1;absoluteArcSize=1;arcSize=9;fillColor=#FFFFFF;strokeWidth=1.5;" vertex="1" parent="1">
            <mxGeometry x="1680" y="-555" width="315" height="120" as="geometry" />
          </mxCell>
        </UserObject>
        <UserObject label="" lucidchartObjectId="r5J2X.Q7w5Ru" id="8C0IB4UqVyfgRzPnCOyS-18">
          <mxCell style="html=1;jettySize=18;whiteSpace=wrap;fontSize=13;strokeColor=#383a3d;strokeOpacity=100;dashed=1;fixDash=1;strokeWidth=2.3;rounded=0;startArrow=none;endArrow=block;endFill=1;exitX=-0.002;exitY=0.5;exitPerimeter=0;entryX=1.005;entryY=0.5;entryPerimeter=0;" edge="1" parent="1" source="8C0IB4UqVyfgRzPnCOyS-17" target="8C0IB4UqVyfgRzPnCOyS-4">
            <mxGeometry width="100" height="100" relative="1" as="geometry">
              <Array as="points" />
            </mxGeometry>
          </mxCell>
        </UserObject>
        <mxCell id="8C0IB4UqVyfgRzPnCOyS-19" value="&amp;lt;&amp;lt;Exclude&amp;gt;&amp;gt;" style="text;html=1;resizable=0;labelBackgroundColor=default;align=center;verticalAlign=middle;fontStyle=1;fontColor=#383a3d;fontSize=16.8;" vertex="1" parent="8C0IB4UqVyfgRzPnCOyS-18">
          <mxGeometry relative="1" as="geometry" />
        </mxCell>
        <UserObject label="Secondary Actors" lucidchartObjectId="r5J2COUMv.Je" id="8C0IB4UqVyfgRzPnCOyS-20">
          <mxCell style="html=1;overflow=block;blockSpacing=1;whiteSpace=wrap;fontSize=38.5;fontColor=#8b412b;fontStyle=1;spacing=0;fillColor=#ffffff;strokeWidth=1.5;strokeColor=none;" vertex="1" parent="1">
            <mxGeometry x="2158" y="-660" width="337" height="45" as="geometry" />
          </mxCell>
        </UserObject>
        <UserObject label="KNAPP Chat" lucidchartObjectId="r5J2vAeCprOs" id="8C0IB4UqVyfgRzPnCOyS-21">
          <mxCell style="html=1;overflow=block;blockSpacing=1;whiteSpace=wrap;ellipse;fontSize=20.2;fontColor=#383a3d;fontStyle=1;spacing=3.8;strokeColor=#383a3d;strokeOpacity=100;fillOpacity=100;rounded=1;absoluteArcSize=1;arcSize=9;fillColor=#FFFFFF;strokeWidth=5.3;" vertex="1" parent="1">
            <mxGeometry x="825" y="-1" width="152" height="90" as="geometry" />
          </mxCell>
        </UserObject>
        <UserObject label="KNPP Mail" lucidchartObjectId="r5J2yTaVUxg5" id="8C0IB4UqVyfgRzPnCOyS-22">
          <mxCell style="html=1;overflow=block;blockSpacing=1;whiteSpace=wrap;ellipse;fontSize=20.2;fontColor=#383a3d;fontStyle=1;spacing=3.8;strokeColor=#383a3d;strokeOpacity=100;fillOpacity=100;rounded=1;absoluteArcSize=1;arcSize=9;fillColor=#FFFFFF;strokeWidth=5.3;" vertex="1" parent="1">
            <mxGeometry x="1020" y="-1" width="127" height="90" as="geometry" />
          </mxCell>
        </UserObject>
        <UserObject label="" lucidchartObjectId="r5J2K00zrlXV" id="8C0IB4UqVyfgRzPnCOyS-23">
          <mxCell style="html=1;jettySize=18;whiteSpace=wrap;fontSize=13;strokeColor=#383a3d;strokeOpacity=100;dashed=1;fixDash=1;dashPattern=6 5;strokeWidth=2.3;rounded=0;startArrow=none;endArrow=block;endFill=1;entryX=0.5;entryY=-0.029;entryPerimeter=0;exitX=0.5;exitY=-0.029;exitDx=0;exitDy=0;exitPerimeter=0;" edge="1" parent="1" source="8C0IB4UqVyfgRzPnCOyS-21">
            <mxGeometry width="100" height="100" relative="1" as="geometry">
              <Array as="points" />
              <mxPoint x="1242" y="-252" as="targetPoint" />
            </mxGeometry>
          </mxCell>
        </UserObject>
        <mxCell id="8C0IB4UqVyfgRzPnCOyS-24" value="&amp;lt;&amp;lt;Include&amp;gt;&amp;gt;" style="text;html=1;resizable=0;labelBackgroundColor=default;align=center;verticalAlign=middle;fontStyle=1;fontColor=#383a3d;fontSize=16.8;" vertex="1" parent="8C0IB4UqVyfgRzPnCOyS-23">
          <mxGeometry x="0.3216789903860193" relative="1" as="geometry">
            <mxPoint x="-57" y="48" as="offset" />
          </mxGeometry>
        </mxCell>
        <UserObject label="" lucidchartObjectId="r5J2azcaGyv9" id="8C0IB4UqVyfgRzPnCOyS-25">
          <mxCell style="html=1;jettySize=18;whiteSpace=wrap;fontSize=13;strokeColor=#383a3d;strokeOpacity=100;dashed=1;fixDash=1;dashPattern=6 5;strokeWidth=2.3;rounded=0;startArrow=none;endArrow=block;endFill=1;exitX=0.5;exitY=-0.029;exitPerimeter=0;entryX=0.5;entryY=1.012;entryPerimeter=0;exitDx=0;exitDy=0;entryDx=0;entryDy=0;" edge="1" parent="1" source="8C0IB4UqVyfgRzPnCOyS-22" target="8C0IB4UqVyfgRzPnCOyS-4">
            <mxGeometry width="100" height="100" relative="1" as="geometry">
              <Array as="points" />
            </mxGeometry>
          </mxCell>
        </UserObject>
        <mxCell id="8C0IB4UqVyfgRzPnCOyS-26" value="&amp;lt;&amp;lt;Include&amp;gt;&amp;gt;" style="text;html=1;resizable=0;labelBackgroundColor=default;align=center;verticalAlign=middle;fontStyle=1;fontColor=#383a3d;fontSize=16.8;" vertex="1" parent="8C0IB4UqVyfgRzPnCOyS-25">
          <mxGeometry x="0.3216789903860193" relative="1" as="geometry">
            <mxPoint x="-8" y="48" as="offset" />
          </mxGeometry>
        </mxCell>
        <UserObject label="Account" lucidchartObjectId="r5J2B9xqAy.q" id="8C0IB4UqVyfgRzPnCOyS-27">
          <mxCell style="html=1;overflow=block;blockSpacing=1;whiteSpace=wrap;ellipse;fontSize=20.2;fontColor=#383a3d;fontStyle=1;spacing=3.8;strokeColor=#383a3d;strokeOpacity=100;fillOpacity=100;rounded=1;absoluteArcSize=1;arcSize=9;fillColor=#FFFFFF;strokeWidth=5.3;" vertex="1" parent="1">
            <mxGeometry x="1190" y="2" width="127" height="90" as="geometry" />
          </mxCell>
        </UserObject>
        <UserObject label="" lucidchartObjectId="r5J2O1D.Xre~" id="8C0IB4UqVyfgRzPnCOyS-28">
          <mxCell style="html=1;jettySize=18;whiteSpace=wrap;fontSize=13;strokeColor=#383a3d;strokeOpacity=100;dashed=1;fixDash=1;dashPattern=6 5;strokeWidth=2.3;rounded=0;startArrow=none;endArrow=block;endFill=1;exitX=0.5;exitY=-0.029;exitPerimeter=0;entryX=0.5;entryY=1.012;entryPerimeter=0;exitDx=0;exitDy=0;entryDx=0;entryDy=0;" edge="1" parent="1" source="8C0IB4UqVyfgRzPnCOyS-27" target="8C0IB4UqVyfgRzPnCOyS-4">
            <mxGeometry width="100" height="100" relative="1" as="geometry">
              <Array as="points" />
            </mxGeometry>
          </mxCell>
        </UserObject>
        <mxCell id="8C0IB4UqVyfgRzPnCOyS-29" value="&amp;lt;&amp;lt;Include&amp;gt;&amp;gt;" style="text;html=1;resizable=0;labelBackgroundColor=default;align=center;verticalAlign=middle;fontStyle=1;fontColor=#383a3d;fontSize=16.8;" vertex="1" parent="8C0IB4UqVyfgRzPnCOyS-28">
          <mxGeometry x="0.3216789903860193" relative="1" as="geometry">
            <mxPoint x="-4" y="147" as="offset" />
          </mxGeometry>
        </mxCell>
        <UserObject label="Management" lucidchartObjectId="r5J27GrSSgna" id="8C0IB4UqVyfgRzPnCOyS-30">
          <mxCell style="html=1;overflow=block;blockSpacing=1;whiteSpace=wrap;ellipse;fontSize=20.2;fontColor=#383a3d;fontStyle=1;spacing=3.8;strokeColor=#383a3d;strokeOpacity=100;fillOpacity=100;rounded=1;absoluteArcSize=1;arcSize=9;fillColor=#FFFFFF;strokeWidth=5.3;" vertex="1" parent="1">
            <mxGeometry x="1380" y="2" width="170" height="90" as="geometry" />
          </mxCell>
        </UserObject>
        <UserObject label="Registration" lucidchartObjectId="r5J2olbRrRKt" id="8C0IB4UqVyfgRzPnCOyS-31">
          <mxCell style="html=1;overflow=block;blockSpacing=1;whiteSpace=wrap;ellipse;fontSize=20.2;fontColor=#383a3d;fontStyle=1;spacing=3.8;strokeColor=#383a3d;strokeOpacity=100;fillOpacity=100;rounded=1;absoluteArcSize=1;arcSize=9;fillColor=#FFFFFF;strokeWidth=5.3;" vertex="1" parent="1">
            <mxGeometry x="1598" y="-1" width="142" height="90" as="geometry" />
          </mxCell>
        </UserObject>
        <UserObject label="" lucidchartObjectId="r5J2axlpv5Dt" id="8C0IB4UqVyfgRzPnCOyS-32">
          <mxCell style="html=1;jettySize=18;whiteSpace=wrap;fontSize=13;strokeColor=#383a3d;strokeOpacity=100;dashed=1;fixDash=1;dashPattern=6 5;strokeWidth=2.3;rounded=0;startArrow=none;endArrow=block;endFill=1;exitX=0.5;exitY=-0.029;exitPerimeter=0;entryX=0.5;entryY=1.012;entryPerimeter=0;exitDx=0;exitDy=0;entryDx=0;entryDy=0;" edge="1" parent="1" source="8C0IB4UqVyfgRzPnCOyS-30" target="8C0IB4UqVyfgRzPnCOyS-4">
            <mxGeometry width="100" height="100" relative="1" as="geometry">
              <Array as="points" />
            </mxGeometry>
          </mxCell>
        </UserObject>
        <mxCell id="8C0IB4UqVyfgRzPnCOyS-33" value="&amp;lt;&amp;lt;Include&amp;gt;&amp;gt;" style="text;html=1;resizable=0;labelBackgroundColor=default;align=center;verticalAlign=middle;fontStyle=1;fontColor=#383a3d;fontSize=16.8;" vertex="1" parent="8C0IB4UqVyfgRzPnCOyS-32">
          <mxGeometry x="0.3216789903860193" relative="1" as="geometry">
            <mxPoint x="133" y="137" as="offset" />
          </mxGeometry>
        </mxCell>
        <UserObject label="" lucidchartObjectId="r5J2oRrUITEr" id="8C0IB4UqVyfgRzPnCOyS-34">
          <mxCell style="html=1;jettySize=18;whiteSpace=wrap;fontSize=13;strokeColor=#383a3d;strokeOpacity=100;dashed=1;fixDash=1;dashPattern=6 5;strokeWidth=2.3;rounded=0;startArrow=none;endArrow=block;endFill=1;exitX=0.5;exitY=-0.029;exitPerimeter=0;entryX=0.5;entryY=1.012;entryPerimeter=0;exitDx=0;exitDy=0;entryDx=0;entryDy=0;" edge="1" parent="1" source="8C0IB4UqVyfgRzPnCOyS-31" target="8C0IB4UqVyfgRzPnCOyS-4">
            <mxGeometry width="100" height="100" relative="1" as="geometry">
              <Array as="points" />
            </mxGeometry>
          </mxCell>
        </UserObject>
        <mxCell id="8C0IB4UqVyfgRzPnCOyS-35" value="&amp;lt;&amp;lt;Exclude&amp;gt;&amp;gt;" style="text;html=1;resizable=0;labelBackgroundColor=default;align=center;verticalAlign=middle;fontStyle=1;fontColor=#383a3d;fontSize=16.8;" vertex="1" parent="8C0IB4UqVyfgRzPnCOyS-34">
          <mxGeometry x="0.3216789903860193" relative="1" as="geometry">
            <mxPoint x="224" y="123" as="offset" />
          </mxGeometry>
        </mxCell>
        <UserObject label="Library" lucidchartObjectId="r5J25.X7.MkT" id="8C0IB4UqVyfgRzPnCOyS-36">
          <mxCell style="html=1;overflow=block;blockSpacing=1;whiteSpace=wrap;ellipse;fontSize=20.2;fontColor=#383a3d;fontStyle=1;spacing=3.8;strokeColor=#383a3d;strokeOpacity=100;fillOpacity=100;rounded=1;absoluteArcSize=1;arcSize=9;fillColor=#FFFFFF;strokeWidth=5.3;" vertex="1" parent="1">
            <mxGeometry x="1770" y="-1" width="170" height="90" as="geometry" />
          </mxCell>
        </UserObject>
        <UserObject label="" lucidchartObjectId="r5J2RgMVhdmM" id="8C0IB4UqVyfgRzPnCOyS-37">
          <mxCell style="html=1;jettySize=18;whiteSpace=wrap;fontSize=13;strokeColor=#383a3d;strokeOpacity=100;dashed=1;fixDash=1;dashPattern=6 5;strokeWidth=2.3;rounded=0;startArrow=none;endArrow=block;endFill=1;exitX=0.5;exitY=-0.029;exitPerimeter=0;entryX=0.5;entryY=1.012;entryPerimeter=0;exitDx=0;exitDy=0;entryDx=0;entryDy=0;" edge="1" parent="1" source="8C0IB4UqVyfgRzPnCOyS-36" target="8C0IB4UqVyfgRzPnCOyS-4">
            <mxGeometry width="100" height="100" relative="1" as="geometry">
              <Array as="points" />
            </mxGeometry>
          </mxCell>
        </UserObject>
        <mxCell id="8C0IB4UqVyfgRzPnCOyS-38" value="&amp;lt;&amp;lt;Include&amp;gt;&amp;gt;" style="text;html=1;resizable=0;labelBackgroundColor=default;align=center;verticalAlign=middle;fontStyle=1;fontColor=#383a3d;fontSize=16.8;" vertex="1" parent="8C0IB4UqVyfgRzPnCOyS-37">
          <mxGeometry x="0.3216789903860193" relative="1" as="geometry">
            <mxPoint x="204" y="88" as="offset" />
          </mxGeometry>
        </mxCell>
        <UserObject label="" lucidchartObjectId="r5J24vtlSX1T" id="8C0IB4UqVyfgRzPnCOyS-39">
          <mxCell style="html=1;jettySize=18;whiteSpace=wrap;fontSize=13;strokeColor=#E45E2D;strokeWidth=3;rounded=0;startArrow=none;endArrow=none;exitX=0.547;exitY=0.5;exitPerimeter=0;" edge="1" parent="1" source="8C0IB4UqVyfgRzPnCOyS-9">
            <mxGeometry width="100" height="100" relative="1" as="geometry">
              <Array as="points" />
              <mxPoint x="1505" y="-364" as="targetPoint" />
            </mxGeometry>
          </mxCell>
        </UserObject>
        <UserObject label="" lucidchartObjectId="r5J2MRNHWDu_" id="8C0IB4UqVyfgRzPnCOyS-40">
          <mxCell style="html=1;jettySize=18;whiteSpace=wrap;fontSize=13;strokeColor=#E45E2D;strokeWidth=1.5;rounded=0;startArrow=none;endArrow=none;exitX=0.456;exitY=0.436;exitPerimeter=0;" edge="1" parent="1" source="8C0IB4UqVyfgRzPnCOyS-5">
            <mxGeometry width="100" height="100" relative="1" as="geometry">
              <Array as="points" />
              <mxPoint x="747" y="-3" as="targetPoint" />
            </mxGeometry>
          </mxCell>
        </UserObject>
        <UserObject label="" lucidchartObjectId="r5J2FwDNtG-s" id="8C0IB4UqVyfgRzPnCOyS-41">
          <mxCell style="html=1;jettySize=18;whiteSpace=wrap;fontSize=13;strokeColor=#E45E2D;strokeWidth=1.5;rounded=0;startArrow=none;endArrow=none;exitX=0.456;exitY=0.436;exitPerimeter=0;entryX=0.5;entryY=-0.029;entryPerimeter=0;" edge="1" parent="1" source="8C0IB4UqVyfgRzPnCOyS-5" target="8C0IB4UqVyfgRzPnCOyS-21">
            <mxGeometry width="100" height="100" relative="1" as="geometry">
              <Array as="points" />
            </mxGeometry>
          </mxCell>
        </UserObject>
        <UserObject label="" lucidchartObjectId="r5J2Arm~ONbg" id="8C0IB4UqVyfgRzPnCOyS-42">
          <mxCell style="html=1;jettySize=18;whiteSpace=wrap;fontSize=13;strokeColor=#E45E2D;strokeWidth=1.5;rounded=0;startArrow=none;endArrow=none;exitX=0.456;exitY=0.436;exitPerimeter=0;entryX=0.5;entryY=-0.029;entryPerimeter=0;" edge="1" parent="1" source="8C0IB4UqVyfgRzPnCOyS-5" target="8C0IB4UqVyfgRzPnCOyS-22">
            <mxGeometry width="100" height="100" relative="1" as="geometry">
              <Array as="points" />
            </mxGeometry>
          </mxCell>
        </UserObject>
        <UserObject label="" lucidchartObjectId="r5J2CyC2kF_y" id="8C0IB4UqVyfgRzPnCOyS-43">
          <mxCell style="html=1;jettySize=18;whiteSpace=wrap;fontSize=13;strokeColor=#E45E2D;strokeWidth=1.5;rounded=0;startArrow=none;endArrow=none;exitX=0.456;exitY=0.436;exitPerimeter=0;entryX=0.5;entryY=-0.029;entryPerimeter=0;" edge="1" parent="1" source="8C0IB4UqVyfgRzPnCOyS-5" target="8C0IB4UqVyfgRzPnCOyS-27">
            <mxGeometry width="100" height="100" relative="1" as="geometry">
              <Array as="points" />
            </mxGeometry>
          </mxCell>
        </UserObject>
        <UserObject label="" lucidchartObjectId="r5J2D.MYrkup" id="8C0IB4UqVyfgRzPnCOyS-44">
          <mxCell style="html=1;jettySize=18;whiteSpace=wrap;fontSize=13;strokeColor=#E45E2D;strokeWidth=1.5;rounded=0;startArrow=none;endArrow=none;exitX=0.456;exitY=0.436;exitPerimeter=0;" edge="1" parent="1" source="8C0IB4UqVyfgRzPnCOyS-5">
            <mxGeometry width="100" height="100" relative="1" as="geometry">
              <Array as="points" />
              <mxPoint x="1465" y="-1" as="targetPoint" />
            </mxGeometry>
          </mxCell>
        </UserObject>
        <UserObject label="" lucidchartObjectId="r5J2wy0E1sMV" id="8C0IB4UqVyfgRzPnCOyS-45">
          <mxCell style="html=1;jettySize=18;whiteSpace=wrap;fontSize=13;strokeColor=#E45E2D;strokeWidth=1.5;rounded=0;startArrow=none;endArrow=none;exitX=0.456;exitY=0.436;exitPerimeter=0;entryX=0.5;entryY=-0.029;entryPerimeter=0;" edge="1" parent="1" source="8C0IB4UqVyfgRzPnCOyS-5" target="8C0IB4UqVyfgRzPnCOyS-31">
            <mxGeometry width="100" height="100" relative="1" as="geometry">
              <Array as="points" />
            </mxGeometry>
          </mxCell>
        </UserObject>
        <UserObject label="" lucidchartObjectId="r5J2xSj9f.Uq" id="8C0IB4UqVyfgRzPnCOyS-46">
          <mxCell style="html=1;jettySize=18;whiteSpace=wrap;fontSize=13;strokeColor=#E45E2D;strokeWidth=1.5;rounded=0;startArrow=none;endArrow=none;exitX=0.456;exitY=0.436;exitPerimeter=0;entryX=0.5;entryY=-0.029;entryPerimeter=0;" edge="1" parent="1" source="8C0IB4UqVyfgRzPnCOyS-5" target="8C0IB4UqVyfgRzPnCOyS-36">
            <mxGeometry width="100" height="100" relative="1" as="geometry">
              <Array as="points" />
            </mxGeometry>
          </mxCell>
        </UserObject>
        <UserObject label="" lucidchartObjectId="r5J2D6M2X6kA" id="8C0IB4UqVyfgRzPnCOyS-47">
          <mxCell style="html=1;jettySize=18;whiteSpace=wrap;fontSize=13;strokeColor=#383a3d;strokeOpacity=100;strokeWidth=1.5;rounded=0;startArrow=none;endArrow=none;exitX=0.456;exitY=0.436;exitPerimeter=0;entryX=0.5;entryY=-0.029;entryPerimeter=0;" edge="1" parent="1" source="8C0IB4UqVyfgRzPnCOyS-7" target="8C0IB4UqVyfgRzPnCOyS-10">
            <mxGeometry width="100" height="100" relative="1" as="geometry">
              <Array as="points" />
            </mxGeometry>
          </mxCell>
        </UserObject>
        <UserObject label="" lucidchartObjectId="r5J2DZ-u5S5Z" id="8C0IB4UqVyfgRzPnCOyS-48">
          <mxCell style="html=1;jettySize=18;whiteSpace=wrap;fontSize=13;strokeColor=#383a3d;strokeOpacity=100;strokeWidth=1.5;rounded=0;startArrow=none;endArrow=none;exitX=0.456;exitY=0.436;exitPerimeter=0;entryX=0.5;entryY=-0.029;entryPerimeter=0;" edge="1" parent="1" source="8C0IB4UqVyfgRzPnCOyS-7" target="8C0IB4UqVyfgRzPnCOyS-21">
            <mxGeometry width="100" height="100" relative="1" as="geometry">
              <Array as="points" />
            </mxGeometry>
          </mxCell>
        </UserObject>
        <UserObject label="" lucidchartObjectId="r5J2QekRsKmL" id="8C0IB4UqVyfgRzPnCOyS-49">
          <mxCell style="html=1;jettySize=18;whiteSpace=wrap;fontSize=13;strokeColor=#383a3d;strokeOpacity=100;strokeWidth=1.5;rounded=0;startArrow=none;endArrow=none;exitX=0.456;exitY=0.436;exitPerimeter=0;entryX=0.5;entryY=-0.029;entryPerimeter=0;" edge="1" parent="1" source="8C0IB4UqVyfgRzPnCOyS-7" target="8C0IB4UqVyfgRzPnCOyS-22">
            <mxGeometry width="100" height="100" relative="1" as="geometry">
              <Array as="points" />
            </mxGeometry>
          </mxCell>
        </UserObject>
        <UserObject label="" lucidchartObjectId="r5J2byv8GokP" id="8C0IB4UqVyfgRzPnCOyS-50">
          <mxCell style="html=1;jettySize=18;whiteSpace=wrap;fontSize=13;strokeColor=#383a3d;strokeOpacity=100;strokeWidth=1.5;rounded=0;startArrow=none;endArrow=none;exitX=0.456;exitY=0.436;exitPerimeter=0;entryX=0.5;entryY=-0.029;entryPerimeter=0;" edge="1" parent="1" source="8C0IB4UqVyfgRzPnCOyS-7" target="8C0IB4UqVyfgRzPnCOyS-27">
            <mxGeometry width="100" height="100" relative="1" as="geometry">
              <Array as="points" />
            </mxGeometry>
          </mxCell>
        </UserObject>
        <UserObject label="" lucidchartObjectId="r5J2F1K6f7AU" id="8C0IB4UqVyfgRzPnCOyS-51">
          <mxCell style="html=1;jettySize=18;whiteSpace=wrap;fontSize=13;strokeOpacity=100;strokeWidth=1.5;rounded=0;startArrow=none;endArrow=none;exitX=0.456;exitY=0.436;exitPerimeter=0;" edge="1" parent="1" source="8C0IB4UqVyfgRzPnCOyS-8">
            <mxGeometry width="100" height="100" relative="1" as="geometry">
              <Array as="points" />
              <mxPoint x="747" y="-3" as="targetPoint" />
            </mxGeometry>
          </mxCell>
        </UserObject>
        <UserObject label="" lucidchartObjectId="r5J2sVjDPCIA" id="8C0IB4UqVyfgRzPnCOyS-52">
          <mxCell style="html=1;jettySize=18;whiteSpace=wrap;fontSize=13;strokeOpacity=100;strokeWidth=1.5;rounded=0;startArrow=none;endArrow=none;exitX=0.456;exitY=0.436;exitPerimeter=0;entryX=1.017;entryY=0.5;entryPerimeter=0;" edge="1" parent="1" source="8C0IB4UqVyfgRzPnCOyS-8" target="8C0IB4UqVyfgRzPnCOyS-21">
            <mxGeometry width="100" height="100" relative="1" as="geometry">
              <Array as="points" />
            </mxGeometry>
          </mxCell>
        </UserObject>
        <UserObject label="" lucidchartObjectId="r5J2jcS9PVzu" id="8C0IB4UqVyfgRzPnCOyS-53">
          <mxCell style="html=1;jettySize=18;whiteSpace=wrap;fontSize=13;strokeOpacity=100;strokeWidth=1.5;rounded=0;startArrow=none;endArrow=none;exitX=0.456;exitY=0.436;exitPerimeter=0;entryX=1.021;entryY=0.5;entryPerimeter=0;" edge="1" parent="1" source="8C0IB4UqVyfgRzPnCOyS-8" target="8C0IB4UqVyfgRzPnCOyS-22">
            <mxGeometry width="100" height="100" relative="1" as="geometry">
              <Array as="points" />
            </mxGeometry>
          </mxCell>
        </UserObject>
        <UserObject label="" lucidchartObjectId="r5J270FsQOd6" id="8C0IB4UqVyfgRzPnCOyS-54">
          <mxCell style="html=1;jettySize=18;whiteSpace=wrap;fontSize=13;strokeOpacity=100;strokeWidth=1.5;rounded=0;startArrow=none;endArrow=none;exitX=0.456;exitY=0.436;exitPerimeter=0;entryX=1.015;entryY=0.5;entryPerimeter=0;" edge="1" parent="1" source="8C0IB4UqVyfgRzPnCOyS-8" target="8C0IB4UqVyfgRzPnCOyS-30">
            <mxGeometry width="100" height="100" relative="1" as="geometry">
              <Array as="points" />
            </mxGeometry>
          </mxCell>
        </UserObject>
        <UserObject label="" lucidchartObjectId="r5J2mPMGW1iT" id="8C0IB4UqVyfgRzPnCOyS-55">
          <mxCell style="html=1;jettySize=18;whiteSpace=wrap;fontSize=13;strokeColor=#ba23f6;strokeOpacity=100;strokeWidth=1.5;rounded=0;startArrow=none;endArrow=none;exitX=0.456;exitY=0.436;exitPerimeter=0;entryX=0.5;entryY=1.029;entryPerimeter=0;" edge="1" parent="1" source="8C0IB4UqVyfgRzPnCOyS-9" target="8C0IB4UqVyfgRzPnCOyS-10">
            <mxGeometry width="100" height="100" relative="1" as="geometry">
              <Array as="points" />
            </mxGeometry>
          </mxCell>
        </UserObject>
        <UserObject label="" lucidchartObjectId="r5J2hL.vMlgH" id="8C0IB4UqVyfgRzPnCOyS-56">
          <mxCell style="html=1;jettySize=18;whiteSpace=wrap;fontSize=13;strokeColor=#ba23f6;strokeOpacity=100;strokeWidth=1.5;rounded=0;startArrow=none;endArrow=none;exitX=0.456;exitY=0.436;exitPerimeter=0;entryX=0.5;entryY=1.029;entryPerimeter=0;" edge="1" parent="1" source="8C0IB4UqVyfgRzPnCOyS-9" target="8C0IB4UqVyfgRzPnCOyS-21">
            <mxGeometry width="100" height="100" relative="1" as="geometry">
              <Array as="points" />
            </mxGeometry>
          </mxCell>
        </UserObject>
        <UserObject label="" lucidchartObjectId="r5J2gbvT8j~n" id="8C0IB4UqVyfgRzPnCOyS-57">
          <mxCell style="html=1;jettySize=18;whiteSpace=wrap;fontSize=13;strokeColor=#ba23f6;strokeOpacity=100;strokeWidth=1.5;rounded=0;startArrow=none;endArrow=none;exitX=0.456;exitY=0.436;exitPerimeter=0;entryX=0.5;entryY=1.029;entryPerimeter=0;" edge="1" parent="1" source="8C0IB4UqVyfgRzPnCOyS-9" target="8C0IB4UqVyfgRzPnCOyS-22">
            <mxGeometry width="100" height="100" relative="1" as="geometry">
              <Array as="points" />
            </mxGeometry>
          </mxCell>
        </UserObject>
        <UserObject label="" lucidchartObjectId="r5J2wiEI_zvT" id="8C0IB4UqVyfgRzPnCOyS-58">
          <mxCell style="html=1;jettySize=18;whiteSpace=wrap;fontSize=13;strokeColor=#ba23f6;strokeOpacity=100;strokeWidth=1.5;rounded=0;startArrow=none;endArrow=none;exitX=0.456;exitY=0.436;exitPerimeter=0;entryX=0.5;entryY=1.029;entryPerimeter=0;" edge="1" parent="1" source="8C0IB4UqVyfgRzPnCOyS-9" target="8C0IB4UqVyfgRzPnCOyS-31">
            <mxGeometry width="100" height="100" relative="1" as="geometry">
              <Array as="points" />
            </mxGeometry>
          </mxCell>
        </UserObject>
        <UserObject label="" lucidchartObjectId="r5J25N3_yHgc" id="8C0IB4UqVyfgRzPnCOyS-59">
          <mxCell style="html=1;jettySize=18;whiteSpace=wrap;fontSize=13;strokeOpacity=100;strokeWidth=1.5;rounded=0;startArrow=none;endArrow=none;exitX=0.456;exitY=0.436;exitPerimeter=0;entryX=0.5;entryY=1.029;entryPerimeter=0;" edge="1" parent="1" source="8C0IB4UqVyfgRzPnCOyS-8" target="8C0IB4UqVyfgRzPnCOyS-31">
            <mxGeometry width="100" height="100" relative="1" as="geometry">
              <Array as="points" />
            </mxGeometry>
          </mxCell>
        </UserObject>
        <UserObject label="Post Assignments" lucidchartObjectId="r5J2c-V0DJVj" id="8C0IB4UqVyfgRzPnCOyS-60">
          <mxCell style="html=1;overflow=block;blockSpacing=1;whiteSpace=wrap;ellipse;fontSize=13;spacing=3.8;strokeColor=#383a3d;strokeOpacity=100;fillOpacity=100;rounded=1;absoluteArcSize=1;arcSize=9;fillColor=#FFFFFF;strokeWidth=5.3;" vertex="1" parent="1">
            <mxGeometry x="762" y="300" width="165" height="90" as="geometry" />
          </mxCell>
        </UserObject>
        <UserObject label="Take Attendance" lucidchartObjectId="r5J2xrtc~mVa" id="8C0IB4UqVyfgRzPnCOyS-61">
          <mxCell style="html=1;overflow=block;blockSpacing=1;whiteSpace=wrap;ellipse;fontSize=13;spacing=3.8;strokeColor=#383a3d;strokeOpacity=100;fillOpacity=100;rounded=1;absoluteArcSize=1;arcSize=9;fillColor=#FFFFFF;strokeWidth=5.3;" vertex="1" parent="1">
            <mxGeometry x="1025" y="349" width="165" height="90" as="geometry" />
          </mxCell>
        </UserObject>
        <UserObject label="Post Result" lucidchartObjectId="r5J2udh~CxYc" id="8C0IB4UqVyfgRzPnCOyS-62">
          <mxCell style="html=1;overflow=block;blockSpacing=1;whiteSpace=wrap;ellipse;fontSize=13;spacing=3.8;strokeColor=#383a3d;strokeOpacity=100;fillOpacity=100;rounded=1;absoluteArcSize=1;arcSize=9;fillColor=#FFFFFF;strokeWidth=5.3;" vertex="1" parent="1">
            <mxGeometry x="1317" y="349" width="150" height="90" as="geometry" />
          </mxCell>
        </UserObject>
        <UserObject label="Issue/ View Books" lucidchartObjectId="r5J2gv8Yv7ap" id="8C0IB4UqVyfgRzPnCOyS-63">
          <mxCell style="html=1;overflow=block;blockSpacing=1;whiteSpace=wrap;ellipse;fontSize=13;spacing=3.8;strokeColor=#383a3d;strokeOpacity=100;fillOpacity=100;rounded=1;absoluteArcSize=1;arcSize=9;fillColor=#FFFFFF;strokeWidth=5.3;" vertex="1" parent="1">
            <mxGeometry x="1560" y="330" width="175" height="90" as="geometry" />
          </mxCell>
        </UserObject>
        <UserObject label="" lucidchartObjectId="r5J25oiWOSYc" id="8C0IB4UqVyfgRzPnCOyS-68">
          <mxCell style="html=1;jettySize=18;whiteSpace=wrap;fontSize=13;strokeColor=#635dff;strokeOpacity=100;dashed=1;fixDash=1;dashPattern=6 5;strokeWidth=3.8;rounded=0;startArrow=none;endArrow=block;endFill=1;startFill=0;sketch=0;exitX=0.5;exitY=0;exitDx=0;exitDy=0;entryX=0.5;entryY=1;entryDx=0;entryDy=0;" edge="1" parent="1" target="8C0IB4UqVyfgRzPnCOyS-4" source="8C0IB4UqVyfgRzPnCOyS-62">
            <mxGeometry width="100" height="100" relative="1" as="geometry">
              <Array as="points" />
              <mxPoint x="1249" y="-248" as="sourcePoint" />
              <mxPoint x="1330" y="130" as="targetPoint" />
            </mxGeometry>
          </mxCell>
        </UserObject>
        <mxCell id="8C0IB4UqVyfgRzPnCOyS-69" value="&amp;lt;&amp;lt;Include&amp;gt;&amp;gt;" style="text;html=1;resizable=0;labelBackgroundColor=default;align=center;verticalAlign=middle;fontStyle=1;fontColor=#4d0066;fontSize=16.8;" vertex="1" parent="8C0IB4UqVyfgRzPnCOyS-68">
          <mxGeometry x="0.7590876989059372" relative="1" as="geometry">
            <mxPoint x="116" y="472" as="offset" />
          </mxGeometry>
        </mxCell>
        <UserObject label="" lucidchartObjectId="r5J2b.e9TEWS" id="8C0IB4UqVyfgRzPnCOyS-70">
          <mxCell style="html=1;jettySize=18;whiteSpace=wrap;fontSize=13;strokeColor=#635dff;strokeOpacity=100;dashed=1;fixDash=1;dashPattern=6 5;strokeWidth=3.8;rounded=0;startArrow=none;endArrow=block;endFill=1;entryX=0.5;entryY=1;startFill=0;sketch=0;entryDx=0;entryDy=0;" edge="1" parent="1" target="8C0IB4UqVyfgRzPnCOyS-4" source="8C0IB4UqVyfgRzPnCOyS-63">
            <mxGeometry width="100" height="100" relative="1" as="geometry">
              <Array as="points" />
              <mxPoint x="1249" y="-248" as="sourcePoint" />
              <mxPoint x="1642.5" y="334.3899999999999" as="targetPoint" />
            </mxGeometry>
          </mxCell>
        </UserObject>
        <mxCell id="8C0IB4UqVyfgRzPnCOyS-71" value="&amp;lt;&amp;lt;Include&amp;gt;&amp;gt;" style="text;html=1;resizable=0;labelBackgroundColor=default;align=center;verticalAlign=middle;fontStyle=1;fontColor=#4d0066;fontSize=16.8;" vertex="1" parent="8C0IB4UqVyfgRzPnCOyS-70">
          <mxGeometry x="0.56939926978952" relative="1" as="geometry">
            <mxPoint x="216" y="308" as="offset" />
          </mxGeometry>
        </mxCell>
        <mxCell id="8C0IB4UqVyfgRzPnCOyS-72" style="edgeStyle=orthogonalEdgeStyle;rounded=0;sketch=0;orthogonalLoop=1;jettySize=auto;html=1;exitX=0;exitY=0;exitDx=0;exitDy=0;startArrow=none;startFill=0;" edge="1" parent="8C0IB4UqVyfgRzPnCOyS-70" source="8C0IB4UqVyfgRzPnCOyS-71" target="8C0IB4UqVyfgRzPnCOyS-1">
          <mxGeometry relative="1" as="geometry" />
        </mxCell>
      </root>
    </mxGraphModel>
  </diagram>
</mxfile>
